<svg xmlns="http://www.w3.org/2000/svg" viewBox="0 0 896.3094010767585 178" width="896.3094010767585" height="178"><rect x="0" y="0" width="896.3094010767585" height="178" fill="white"/><g transform="translate(25 25)"><g><text x="0" y="27" fill="black" font-family="Arial, Helvetica, sans-serif" font-size="18px" font-weight="normal" font-style="normal" dominant-baseline="middle">input</text><g transform="translate(100 0)"><g><line x1="0" y1="27" x2="714" y2="27" stroke="black" stroke-width="2"/><polyline points="704,21.226497308103742 714,27 704,32.773502691896255" fill="none" stroke="black" stroke-width="2" stroke-linecap="square"/></g><g transform="translate(659 0)"><line x1="0" y1="2" x2="0" y2="52" stroke="black" stroke-width="2"/></g><g transform="translate(573 0)"><ellipse cx="27" cy="27" rx="26" ry="26" fill="hsl(264, 60%, 80%)" stroke="black" stroke-width="2"/><text x="0" y="0" fill="black" font-family="Arial, Helvetica, sans-serif" font-size="18px" font-weight="normal" font-style="normal" dominant-baseline="middle" text-anchor="middle" transform="translate(27 27)">8</text></g><g transform="translate(513 0)"><ellipse cx="27" cy="27" rx="26" ry="26" fill="hsl(230, 60%, 80%)" stroke="black" stroke-width="2"/><text x="0" y="0" fill="black" font-family="Arial, Helvetica, sans-serif" font-size="18px" font-weight="normal" font-style="normal" dominant-baseline="middle" text-anchor="middle" transform="translate(27 27)">7</text></g><g transform="translate(423 0)"><ellipse cx="27" cy="27" rx="26" ry="26" fill="hsl(306, 60%, 80%)" stroke="black" stroke-width="2"/><text x="0" y="0" fill="black" font-family="Arial, Helvetica, sans-serif" font-size="18px" font-weight="normal" font-style="normal" dominant-baseline="middle" text-anchor="middle" transform="translate(27 27)">6</text></g><g transform="translate(363 0)"><ellipse cx="27" cy="27" rx="26" ry="26" fill="hsl(170, 60%, 80%)" stroke="black" stroke-width="2"/><text x="0" y="0" fill="black" font-family="Arial, Helvetica, sans-serif" font-size="18px" font-weight="normal" font-style="normal" dominant-baseline="middle" text-anchor="middle" transform="translate(27 27)">5</text></g><g transform="translate(243 0)"><ellipse cx="27" cy="27" rx="26" ry="26" fill="hsl(117, 60%, 80%)" stroke="black" stroke-width="2"/><text x="0" y="0" fill="black" font-family="Arial, Helvetica, sans-serif" font-size="18px" font-weight="normal" font-style="normal" dominant-baseline="middle" text-anchor="middle" transform="translate(27 27)">4</text></g><g transform="translate(153 0)"><ellipse cx="27" cy="27" rx="26" ry="26" fill="hsl(147, 60%, 80%)" stroke="black" stroke-width="2"/><text x="0" y="0" fill="black" font-family="Arial, Helvetica, sans-serif" font-size="18px" font-weight="normal" font-style="normal" dominant-baseline="middle" text-anchor="middle" transform="translate(27 27)">3</text></g><g transform="translate(63 0)"><ellipse cx="27" cy="27" rx="26" ry="26" fill="hsl(206, 60%, 80%)" stroke="black" stroke-width="2"/><text x="0" y="0" fill="black" font-family="Arial, Helvetica, sans-serif" font-size="18px" font-weight="normal" font-style="normal" dominant-baseline="middle" text-anchor="middle" transform="translate(27 27)">2</text></g><g transform="translate(3 0)"><ellipse cx="27" cy="27" rx="26" ry="26" fill="hsl(35, 60%, 80%)" stroke="black" stroke-width="2"/><text x="0" y="0" fill="black" font-family="Arial, Helvetica, sans-serif" font-size="18px" font-weight="normal" font-style="normal" dominant-baseline="middle" text-anchor="middle" transform="translate(27 27)">1</text></g></g></g><g transform="translate(0 74)"><text x="0" y="27" fill="black" font-family="Arial, Helvetica, sans-serif" font-size="18px" font-weight="normal" font-style="normal" dominant-baseline="middle">output</text><g transform="translate(100 0)"><g><line x1="0" y1="27" x2="744" y2="27" stroke="black" stroke-width="2"/><polyline points="734,21.226497308103742 744,27 734,32.773502691896255" fill="none" stroke="black" stroke-width="2" stroke-linecap="square"/></g><g transform="translate(689 0)"><line x1="0" y1="2" x2="0" y2="52" stroke="black" stroke-width="2"/></g><g transform="translate(633 0)"><ellipse cx="27" cy="27" rx="26" ry="26" fill="hsl(358, 60%, 80%)" stroke="black" stroke-width="2"/><text x="0" y="0" fill="black" font-family="Arial, Helvetica, sans-serif" font-size="18px" font-weight="normal" font-style="normal" dominant-baseline="middle" text-anchor="middle" transform="translate(27 27)">{7,8}</text></g><g transform="translate(423 0)"><ellipse cx="27" cy="27" rx="26" ry="26" fill="hsl(129, 60%, 80%)" stroke="black" stroke-width="2"/><text x="0" y="0" fill="black" font-family="Arial, Helvetica, sans-serif" font-size="18px" font-weight="normal" font-style="normal" dominant-baseline="middle" text-anchor="middle" transform="translate(27 27)">{4,5,6}</text></g><g transform="translate(153 0)"><ellipse cx="27" cy="27" rx="26" ry="26" fill="hsl(214, 60%, 80%)" stroke="black" stroke-width="2"/><text x="0" y="0" fill="black" font-family="Arial, Helvetica, sans-serif" font-size="18px" font-weight="normal" font-style="normal" dominant-baseline="middle" text-anchor="middle" transform="translate(27 27)">{1,2,3}</text></g></g></g></g></svg>