<svg xmlns="http://www.w3.org/2000/svg" viewBox="0 0 752.3094010767585 310" width="752.3094010767585" height="310"><rect x="0" y="0" width="752.3094010767585" height="310" fill="white"/><g transform="translate(25 25)"><g><text x="0" y="60" fill="black" font-family="Arial, Helvetica, sans-serif" font-size="18px" font-weight="normal" font-style="normal" dominant-baseline="middle">input</text><g transform="translate(100 0)"><g><line x1="0" y1="60" x2="600" y2="60" stroke="black" stroke-width="2"/><polyline points="590,54.226497308103745 600,60 590,65.77350269189625" fill="none" stroke="black" stroke-width="2" stroke-linecap="square"/></g><g transform="translate(479 0)"><line x1="0" y1="35" x2="0" y2="85" stroke="black" stroke-width="2"/></g><g transform="translate(270 0)"><ellipse cx="60" cy="60" rx="59" ry="59" fill="hsl(147, 60%, 80%)" stroke="black" stroke-width="2"/><text x="0" y="0" fill="black" font-family="Arial, Helvetica, sans-serif" font-size="18px" font-weight="normal" font-style="normal" dominant-baseline="middle" text-anchor="middle" transform="translate(60 60)">3</text></g><g transform="translate(120 0)"><ellipse cx="60" cy="60" rx="59" ry="59" fill="hsl(206, 60%, 80%)" stroke="black" stroke-width="2"/><text x="0" y="0" fill="black" font-family="Arial, Helvetica, sans-serif" font-size="18px" font-weight="normal" font-style="normal" dominant-baseline="middle" text-anchor="middle" transform="translate(60 60)">2</text></g><g transform="translate(-30 0)"><ellipse cx="60" cy="60" rx="59" ry="59" fill="hsl(35, 60%, 80%)" stroke="black" stroke-width="2"/><text x="0" y="0" fill="black" font-family="Arial, Helvetica, sans-serif" font-size="18px" font-weight="normal" font-style="normal" dominant-baseline="middle" text-anchor="middle" transform="translate(60 60)">1</text></g></g></g><g transform="translate(0 140)"><text x="0" y="60" fill="black" font-family="Arial, Helvetica, sans-serif" font-size="18px" font-weight="normal" font-style="normal" dominant-baseline="middle">output</text><g transform="translate(100 0)"><g><line x1="0" y1="60" x2="600" y2="60" stroke="black" stroke-width="2"/><polyline points="590,54.226497308103745 600,60 590,65.77350269189625" fill="none" stroke="black" stroke-width="2" stroke-linecap="square"/></g><g transform="translate(479 0)"><line x1="0" y1="35" x2="0" y2="85" stroke="black" stroke-width="2"/></g><g transform="translate(270 0)"><ellipse cx="60" cy="60" rx="59" ry="59" fill="hsl(130, 60%, 80%)" stroke="black" stroke-width="2"/><text x="0" y="0" fill="black" font-family="Arial, Helvetica, sans-serif" font-size="18px" font-weight="normal" font-style="normal" dominant-baseline="middle" text-anchor="middle" transform="translate(60 60)">Item{Value: 3}</text></g><g transform="translate(120 0)"><ellipse cx="60" cy="60" rx="59" ry="59" fill="hsl(278, 60%, 80%)" stroke="black" stroke-width="2"/><text x="0" y="0" fill="black" font-family="Arial, Helvetica, sans-serif" font-size="18px" font-weight="normal" font-style="normal" dominant-baseline="middle" text-anchor="middle" transform="translate(60 60)">Item{Value: 2}</text></g><g transform="translate(-30 0)"><ellipse cx="60" cy="60" rx="59" ry="59" fill="hsl(180, 60%, 80%)" stroke="black" stroke-width="2"/><text x="0" y="0" fill="black" font-family="Arial, Helvetica, sans-serif" font-size="18px" font-weight="normal" font-style="normal" dominant-baseline="middle" text-anchor="middle" transform="translate(60 60)">Item{Value: 1}</text></g></g></g></g></svg>