<svg xmlns="http://www.w3.org/2000/svg" viewBox="0 0 442.3094010767585 170" width="442.3094010767585" height="170"><rect x="0" y="0" width="442.3094010767585" height="170" fill="white"/><g transform="translate(25 25)"><g><text x="0" y="25" fill="black" font-family="Arial, Helvetica, sans-serif" font-size="18px" font-weight="normal" font-style="normal" dominant-baseline="middle">input</text><g transform="translate(100 0)"><g><line x1="0" y1="25" x2="290" y2="25" stroke="black" stroke-width="2"/><polyline points="280,19.226497308103742 290,25 280,30.773502691896258" fill="none" stroke="black" stroke-width="2" stroke-linecap="square"/></g><g transform="translate(239 0)"><line x1="0" y1="0" x2="0" y2="50" stroke="black" stroke-width="2"/></g><g transform="translate(125 0)"><ellipse cx="25" cy="25" rx="24" ry="24" fill="hsl(147, 60%, 80%)" stroke="black" stroke-width="2"/><text x="0" y="0" fill="black" font-family="Arial, Helvetica, sans-serif" font-size="18px" font-weight="normal" font-style="normal" dominant-baseline="middle" text-anchor="middle" transform="translate(25 25)">3</text></g><g transform="translate(65 0)"><ellipse cx="25" cy="25" rx="24" ry="24" fill="hsl(206, 60%, 80%)" stroke="black" stroke-width="2"/><text x="0" y="0" fill="black" font-family="Arial, Helvetica, sans-serif" font-size="18px" font-weight="normal" font-style="normal" dominant-baseline="middle" text-anchor="middle" transform="translate(25 25)">2</text></g><g transform="translate(5 0)"><ellipse cx="25" cy="25" rx="24" ry="24" fill="hsl(35, 60%, 80%)" stroke="black" stroke-width="2"/><text x="0" y="0" fill="black" font-family="Arial, Helvetica, sans-serif" font-size="18px" font-weight="normal" font-style="normal" dominant-baseline="middle" text-anchor="middle" transform="translate(25 25)">1</text></g></g></g><g transform="translate(0 70)"><text x="0" y="25" fill="black" font-family="Arial, Helvetica, sans-serif" font-size="18px" font-weight="normal" font-style="normal" dominant-baseline="middle">output</text><g transform="translate(100 0)"><g><line x1="0" y1="25" x2="290" y2="25" stroke="black" stroke-width="2"/><polyline points="280,19.226497308103742 290,25 280,30.773502691896258" fill="none" stroke="black" stroke-width="2" stroke-linecap="square"/></g><g transform="translate(215 0)"><ellipse cx="25" cy="25" rx="24" ry="24" fill="hsl(117, 60%, 80%)" stroke="black" stroke-width="2"/><text x="0" y="0" fill="black" font-family="Arial, Helvetica, sans-serif" font-size="18px" font-weight="normal" font-style="normal" dominant-baseline="middle" text-anchor="middle" transform="translate(25 25)">true</text></g></g></g></g></svg>